<?xml version="1.0" encoding="UTF-8"?>
<svg width="512" height="512" viewBox="0 0 512 512" fill="none" xmlns="http://www.w3.org/2000/svg">
    <!-- 背景圆形 -->
    <circle cx="256" cy="256" r="256" fill="#FF4E4E"/>
    
    <!-- 音符图案 -->
    <path d="M320 144V328C320 354.51 298.51 376 272 376C245.49 376 224 354.51 224 328C224 301.49 245.49 280 272 280C280.837 280 289.183 282.343 296.536 286.465V184.025L176 213.537V328C176 354.51 154.51 376 128 376C101.49 376 80 354.51 80 328C80 301.49 101.49 280 128 280C136.837 280 145.183 282.343 152.536 286.465V168C152.536 159.716 158.252 152.463 166.273 150.537L306.273 114.537C312.349 113.084 318.632 114.763 323.162 118.847C327.692 122.932 330 128.856 330 135V144H320Z" fill="white"/>
    
    <!-- 分类标签 -->
    <path d="M432 192V240H384V192H432Z" fill="white"/>
    <path d="M432 272V320H384V272H432Z" fill="white"/>
</svg> 